<?xml version="1.0" encoding="UTF-8"?><svg id="Layer_1" xmlns="http://www.w3.org/2000/svg" xmlns:xlink="http://www.w3.org/1999/xlink" viewBox="0 0 158.34 202.37"><defs><style>.cls-1{fill:url(#linear-gradient);stroke-width:0px;}</style><linearGradient id="linear-gradient" x1="178.84" y1="-16.18" x2="35.73" y2="172.08" gradientUnits="userSpaceOnUse"><stop offset=".02" stop-color="#f5cb86"/><stop offset="1" stop-color="#7d5a35"/></linearGradient></defs><path class="cls-1" d="M51.92,115.9h-20.12v-9.11h29.12v44.7l-9,7.36v-42.95ZM72.32,142.17l10.31-8.42v-45.18h-37.92V11.75h-12.91v85.93h40.52v44.5ZM94.05,124.41l11.63-9.5v-44.57h-37.92V11.75h-11.63v67.71h37.92v44.95ZM117.1,105.57l12.91-10.55v-42.9h-40.52V11.75h-10.31v49.48h37.92v44.34ZM130.01,43v-9.11h-20.12V11.75h-9v31.25h29.12ZM17.55,181.98l-.44-.11c-1.79-.43-3.34-.81-3.34-1.8,0-.96,1.3-1.48,2.51-1.48,1.55,0,3.52.69,5.14,1.81l.21.14v-3.15s-.06-.04-.06-.04c-1.66-1.04-3.44-1.57-5.28-1.57-3.14,0-5.5,1.85-5.5,4.3,0,2.04,1.53,3.41,4.68,4.16,3.1.76,3.72,1.39,3.72,2.15,0,1.03-1.32,1.39-2.45,1.39-1.87,0-3.76-.77-5.47-2.23l-.22-.18v3.17s.04.04.04.04c1.45,1.3,3.28,1.98,5.45,2.02,1.82.04,3.5-.53,4.52-1.54.72-.71,1.11-1.64,1.11-2.67v-.02c0-2.2-1.51-3.64-4.62-4.41ZM38.38,177.99c-1.34-1.34-3.19-2.18-5.22-2.18-4.06,0-7.37,3.33-7.37,7.42s3.31,7.39,7.37,7.39c1.99,0,3.86-.77,5.26-2.18,1.38-1.39,2.14-3.24,2.14-5.21-.01-2.05-.85-3.9-2.18-5.24ZM33.16,187.8c-2.46,0-4.38-2.01-4.38-4.57s1.92-4.61,4.38-4.61,4.39,2.03,4.39,4.61-1.88,4.57-4.39,4.57ZM53.89,175.96l-3.87,12.03-3.77-12.03h-3.29s4.77,14.51,4.77,14.51h4.58s4.83-14.51,4.83-14.51h-3.25ZM71.92,178.76v-2.81s-10.5,0-10.5,0v14.51s10.5,0,10.5,0v-2.81s-7.49,0-7.49,0v-3.08h7.19s0-2.74,0-2.74h-7.19v-3.08h7.49ZM86.23,185.21l.14-.06c1.68-.74,2.76-2.41,2.76-4.24,0-2.73-2.26-4.96-5.05-4.96h-7.33v14.51h3v-4.84h3.32l2.95,4.84h3.42l-3.21-5.25ZM84.04,182.98h-4.29v-4.3h4.33c1.22,0,2.15.92,2.15,2.15s-.94,2.15-2.19,2.15ZM104.16,178.76v-2.81s-10.5,0-10.5,0v14.51s10.5,0,10.5,0v-2.81s-7.49,0-7.49,0v-3.08h7.05s0-2.74,0-2.74h-7.05v-3.08h7.49ZM109.16,175.96v14.51s3.01,0,3.01,0v-14.51s-3.01,0-3.01,0ZM123.65,182.31l.04,2.58,4.08-.02-.07.19c-.65,1.69-2.13,2.7-3.94,2.7-2.51,0-4.39-1.95-4.39-4.53,0-2.59,1.88-4.55,4.39-4.55,1.37,0,2.58.61,3.35,1.67l2.27-1.81c-1.34-1.73-3.34-2.72-5.63-2.72-4.08,0-7.39,3.32-7.39,7.41s3.31,7.4,7.39,7.4,6.99-3.02,6.99-7.18v-1.15s-7.1,0-7.1,0ZM144.62,175.96v11.34s-5.05-11.34-5.05-11.34h-4.73s0,14.51,0,14.51h2.95s0-11.66,0-11.66l5.2,11.66h4.59s0-14.51,0-14.51h-2.95Z"/></svg>