<?xml version="1.0" encoding="UTF-8"?>
<svg width="800" height="800" viewBox="0 0 800 800" xmlns="http://www.w3.org/2000/svg">
  
  <!-- Die/Dice -->
  <g transform="translate(133, 5) scale(1.1)">
    <g>
      <style type="text/css">.st0{fill:#ff57ff; stroke:#aa33ff; stroke-width:8;}</style>
      <g>
        <path class="st0" d="M449.528,105.602L288.459,8.989C278.469,2.994,267.232,0,255.993,0c-11.225,0-22.463,2.994-32.452,8.989 L62.471,105.602c-19.012,11.406-30.64,31.95-30.64,54.117v192.562c0,22.168,11.628,42.711,30.64,54.117l161.069,96.613 c9.989,5.988,21.228,8.989,32.452,8.989c11.239,0,22.476-3.001,32.466-8.989l161.069-96.613 c19.013-11.406,30.64-31.95,30.64-54.117V159.719C480.168,137.552,468.541,117.008,449.528,105.602z M250.595,492.733 c-6.028-0.745-11.936-2.712-17.321-5.948L72.206,390.172c-13.306-7.99-21.456-22.37-21.456-37.891V159.719 c0-6.022,1.242-11.862,3.518-17.233l196.328,117.76V492.733z M59.665,133.114c3.37-4.464,7.593-8.318,12.54-11.285l161.069-96.613 c6.996-4.196,14.85-6.291,22.718-6.291c7.882,0,15.737,2.095,22.732,6.291l161.069,96.613c4.942,2.967,9.171,6.821,12.54,11.285 L255.993,250.881L59.665,133.114z M461.249,352.281c0,15.521-8.15,29.901-21.456,37.891l-161.069,96.613 c-5.397,3.236-11.292,5.203-17.32,5.948V260.246l196.328-117.76c2.282,5.37,3.518,11.211,3.518,17.233V352.281z"/>
        <path class="st0" d="M367.96,114.498c-10.809-8.01-28.626-8.204-39.784-0.45c-11.158,7.754-11.44,20.543-0.631,28.546 c10.822,8.002,28.626,8.203,39.784,0.45C378.487,135.282,378.769,122.507,367.96,114.498z"/>
        <path class="st0" d="M183.676,112.289c-10.816-8.003-28.626-8.211-39.784-0.45c-11.158,7.754-11.44,20.536-0.631,28.538 c10.808,8.009,28.626,8.204,39.784,0.456C194.203,133.067,194.484,120.291,183.676,112.289z"/>
        <path class="st0" d="M89.285,248.303c11.158,6.083,20.194,1.961,20.194-9.19c0-11.158-9.036-25.129-20.194-31.21 c-11.158-6.083-20.201-1.967-20.201,9.19C69.084,228.244,78.127,242.221,89.285,248.303z"/>
        <path class="st0" d="M202.057,309.771c11.164,6.082,20.207,1.967,20.207-9.184c0-11.157-9.043-25.135-20.207-31.217 c-11.144-6.076-20.194-1.961-20.194,9.198C181.863,289.719,190.913,303.689,202.057,309.771z"/>
        <path class="st0" d="M89.285,361.082c11.158,6.083,20.194,1.967,20.194-9.19c0-11.158-9.036-25.129-20.194-31.21 c-11.158-6.083-20.201-1.968-20.201,9.19C69.084,341.029,78.127,355,89.285,361.082z"/>
        <path class="st0" d="M202.057,422.55c11.164,6.082,20.207,1.967,20.207-9.191c0-11.151-9.043-25.128-20.207-31.21 c-11.144-6.076-20.194-1.961-20.194,9.19C181.863,402.497,190.913,416.468,202.057,422.55z"/>
        <path class="st0" d="M145.671,335.43c11.158,6.076,20.201,1.96,20.201-9.198c0-11.151-9.043-25.128-20.201-31.204 c-11.15-6.082-20.2-1.967-20.2,9.184C125.471,315.37,134.521,329.341,145.671,335.43z"/>
        <path class="st0" d="M414.538,204.559c-11.158,6.082-20.194,20.052-20.194,31.21c0,11.158,9.036,15.273,20.194,9.191 c11.157-6.083,20.207-20.053,20.207-31.211C434.745,202.591,425.695,198.476,414.538,204.559z"/>
        <path class="st0" d="M414.538,270.33c-11.158,6.09-20.194,20.053-20.194,31.211c0,11.158,9.036,15.273,20.194,9.198 c11.157-6.083,20.207-20.06,20.207-31.211C434.745,268.37,425.695,264.248,414.538,270.33z"/>
        <path class="st0" d="M316.36,302.642c11.158-6.082,20.208-20.053,20.208-31.211c0-11.151-9.05-15.266-20.208-9.19 c-11.158,6.082-20.194,20.059-20.194,31.21C296.166,304.609,305.203,308.724,316.36,302.642z"/>
        <path class="st0" d="M414.538,336.108c-11.158,6.082-20.194,20.053-20.194,31.204c0,11.158,9.036,15.273,20.194,9.198 c11.157-6.083,20.207-20.06,20.207-31.218C434.745,334.141,425.695,330.026,414.538,336.108z"/>
        <path class="st0" d="M316.36,393.79c-11.158,6.082-20.194,20.053-20.194,31.211c0,11.15,9.037,15.266,20.194,9.184 c11.158-6.076,20.208-20.053,20.208-31.204C336.568,391.823,327.518,387.708,316.36,393.79z"/>
        <path class="st0" d="M317.569,328.018c-11.158,6.076-20.194,20.053-20.194,31.204c0,11.158,9.036,15.273,20.194,9.191 c11.158-6.082,20.208-20.053,20.208-31.21C337.776,326.052,328.727,321.936,317.569,328.018z"/>
      </g>
    </g>
  </g>

  <!-- METAGAME Logo -->
  <g transform="translate(3, 610)">
    <g id="svgGroup" stroke-linecap="round" fill-rule="nonzero" font-size="9pt" stroke="#aa33ff" stroke-width="5" fill="#ff57ff" style="stroke:#aa33ff;stroke-width:5;fill:#ff57ff">
      <path d="M 0.001 95.403 L 0.001 6.303 Q 0.001 0.003 6.301 0.003 Q 10.426 0.003 13.201 4.053 L 48.601 57.303 L 45.901 57.753 L 81.601 4.053 Q 84.151 0.003 89.251 0.003 Q 94.351 0.003 94.351 6.303 L 94.351 95.403 Q 94.351 101.703 88.051 101.703 Q 81.751 101.703 81.751 95.403 L 81.751 18.903 L 85.651 20.253 L 54.151 66.603 Q 51.376 70.653 46.501 70.653 Q 43.126 70.653 40.351 66.603 L 8.851 20.253 L 12.601 21.303 L 12.601 95.403 Q 12.601 101.703 6.301 101.703 Q 0.001 101.703 0.001 95.403 Z" id="0" vector-effect="non-scaling-stroke"/>
      <path d="M 185.701 101.703 L 131.851 101.703 Q 125.551 101.703 125.551 95.403 L 125.551 6.303 Q 125.551 0.003 131.851 0.003 L 185.701 0.003 Q 192.001 0.003 192.001 6.303 Q 192.001 12.603 185.701 12.603 L 138.151 12.603 L 138.151 44.103 L 168.001 44.103 Q 174.301 44.103 174.301 50.403 Q 174.301 56.703 168.001 56.703 L 138.151 56.703 L 138.151 89.103 L 185.701 89.103 Q 192.001 89.103 192.001 95.403 Q 192.001 101.703 185.701 101.703 Z" id="1" vector-effect="non-scaling-stroke"/>
      <path d="M 240.151 95.403 L 240.151 12.753 L 211.051 12.753 Q 207.901 12.753 206.326 11.178 Q 204.751 9.603 204.751 6.453 Q 204.751 3.303 206.326 1.728 Q 207.901 0.153 211.051 0.153 L 281.851 0.153 Q 285.001 0.153 286.576 1.728 Q 288.151 3.303 288.151 6.453 Q 288.151 9.603 286.576 11.178 Q 285.001 12.753 281.851 12.753 L 252.751 12.753 L 252.751 95.403 Q 252.751 98.403 251.138 100.053 Q 249.526 101.703 246.451 101.703 Q 243.301 101.703 241.726 100.128 Q 240.151 98.553 240.151 95.403 Z" id="2" vector-effect="non-scaling-stroke"/>
      <path d="M 287.701 92.853 L 323.401 4.953 Q 325.651 0.003 330.451 0.003 L 330.751 0.003 Q 335.626 0.228 337.351 4.953 L 373.651 92.853 Q 376.051 98.778 370.201 101.103 Q 364.276 103.428 361.951 97.653 L 353.851 78.003 L 307.126 78.003 L 299.401 97.653 Q 297.076 103.503 291.301 101.103 Q 285.301 98.778 287.701 92.853 Z M 330.001 19.953 L 312.076 65.403 L 348.676 65.403 L 330.001 19.953 Z" id="3" vector-effect="non-scaling-stroke"/>
      <path d="M 442.501 101.703 L 424.501 101.703 Q 407.326 101.703 399.113 93.491 Q 390.901 85.278 390.901 68.103 L 390.901 33.603 Q 390.901 16.278 399.076 8.066 Q 407.251 -0.147 424.351 0.003 L 442.501 0.003 Q 456.601 0.003 464.026 5.816 Q 471.451 11.628 472.651 24.153 Q 473.101 27.303 471.451 28.953 Q 469.801 30.603 466.651 30.603 Q 460.951 30.603 460.051 24.303 Q 459.301 17.403 455.288 15.003 Q 451.276 12.603 442.501 12.603 L 424.351 12.603 Q 416.401 12.528 411.863 14.403 Q 407.326 16.278 405.413 20.891 Q 403.501 25.503 403.501 33.603 L 403.501 68.103 Q 403.501 76.128 405.413 80.703 Q 407.326 85.278 411.901 87.191 Q 416.476 89.103 424.501 89.103 L 442.501 89.103 Q 449.476 89.103 453.413 87.566 Q 457.351 86.028 458.926 82.128 Q 460.501 78.228 460.501 71.103 L 460.501 64.053 L 448.801 63.903 Q 442.501 63.903 442.501 57.603 Q 442.501 51.303 448.801 51.303 L 466.801 51.453 Q 473.101 51.453 473.101 57.753 L 473.101 71.103 Q 473.101 87.078 465.676 94.391 Q 458.251 101.703 442.501 101.703 Z" id="4" vector-effect="non-scaling-stroke"/>
      <path d="M 490.876 92.853 L 526.576 4.953 Q 528.826 0.003 533.626 0.003 L 533.926 0.003 Q 538.801 0.228 540.526 4.953 L 576.826 92.853 Q 579.226 98.778 573.376 101.103 Q 567.451 103.428 565.126 97.653 L 557.026 78.003 L 510.301 78.003 L 502.576 97.653 Q 500.251 103.503 494.476 101.103 Q 488.476 98.778 490.876 92.853 Z M 533.176 19.953 L 515.251 65.403 L 551.851 65.403 L 533.176 19.953 Z" id="5" vector-effect="non-scaling-stroke"/>
      <path d="M 599.176 95.403 L 599.176 6.303 Q 599.176 0.003 605.476 0.003 Q 609.601 0.003 612.376 4.053 L 647.776 57.303 L 645.076 57.753 L 680.776 4.053 Q 683.326 0.003 688.426 0.003 Q 693.526 0.003 693.526 6.303 L 693.526 95.403 Q 693.526 101.703 687.226 101.703 Q 680.926 101.703 680.926 95.403 L 680.926 18.903 L 684.826 20.253 L 653.326 66.603 Q 650.551 70.653 645.676 70.653 Q 642.301 70.653 639.526 66.603 L 608.026 20.253 L 611.776 21.303 L 611.776 95.403 Q 611.776 101.703 605.476 101.703 Q 599.176 101.703 599.176 95.403 Z" id="6" vector-effect="non-scaling-stroke"/>
      <path d="M 784.876 101.703 L 731.026 101.703 Q 724.726 101.703 724.726 95.403 L 724.726 6.303 Q 724.726 0.003 731.026 0.003 L 784.876 0.003 Q 791.176 0.003 791.176 6.303 Q 791.176 12.603 784.876 12.603 L 737.326 12.603 L 737.326 44.103 L 767.176 44.103 Q 773.476 44.103 773.476 50.403 Q 773.476 56.703 767.176 56.703 L 737.326 56.703 L 737.326 89.103 L 784.876 89.103 Q 791.176 89.103 791.176 95.403 Q 791.176 101.703 784.876 101.703 Z" id="7" vector-effect="non-scaling-stroke"/>
    </g>
  </g>

 <!-- DATE -->
 <g transform="translate(3, 740) scale(0.98)">
    <g id="svgGroup" stroke-linecap="round" fill-rule="nonzero" font-size="9pt" stroke="#aa33ff" stroke-width="2" fill="#ff57ff" style="stroke:#aa33ff;stroke-width:2;fill:#ff57ff">
        <path d="M 23.612 47.533 L 13.532 47.533 Q 7.547 47.533 4.204 45.118 Q 0.862 42.703 0.022 37.663 Q -0.118 36.123 0.652 35.353 Q 1.422 34.583 2.892 34.583 Q 4.362 34.583 5.044 35.283 Q 5.727 35.983 5.972 37.453 Q 6.497 39.868 8.229 40.76 Q 9.962 41.653 13.532 41.653 L 23.612 41.653 Q 28.127 41.653 29.754 40.025 Q 31.382 38.398 31.382 33.953 Q 31.382 29.438 29.702 27.775 Q 28.022 26.113 23.612 26.113 L 14.932 26.113 Q 8.317 26.113 5.114 22.875 Q 1.912 19.638 1.912 13.023 Q 1.912 6.443 5.079 3.258 Q 8.247 0.073 14.862 0.073 L 23.192 0.073 Q 28.757 0.073 31.924 2.348 Q 35.092 4.623 35.932 9.313 Q 36.142 10.818 35.372 11.605 Q 34.602 12.393 33.062 12.393 Q 31.662 12.393 30.962 11.658 Q 30.262 10.923 30.052 9.523 Q 29.492 7.458 27.917 6.705 Q 26.342 5.953 23.192 5.953 L 14.862 5.953 Q 10.662 5.953 9.227 7.44 Q 7.792 8.928 7.792 13.023 Q 7.792 17.153 9.262 18.693 Q 10.732 20.233 14.932 20.233 L 23.612 20.233 Q 30.507 20.233 33.884 23.593 Q 37.262 26.953 37.262 33.953 Q 37.262 40.918 33.902 44.225 Q 30.542 47.533 23.612 47.533 Z" id="0" vector-effect="non-scaling-stroke"/>
        <path d="M 78.212 47.533 L 53.082 47.533 Q 50.142 47.533 50.142 44.593 L 50.142 3.013 Q 50.142 0.073 53.082 0.073 L 78.212 0.073 Q 81.152 0.073 81.152 3.013 Q 81.152 5.953 78.212 5.953 L 56.022 5.953 L 56.022 20.653 L 69.952 20.653 Q 72.892 20.653 72.892 23.593 Q 72.892 26.533 69.952 26.533 L 56.022 26.533 L 56.022 41.653 L 78.212 41.653 Q 81.152 41.653 81.152 44.593 Q 81.152 47.533 78.212 47.533 Z" id="1" vector-effect="non-scaling-stroke"/>
        <path d="M 92.352 44.593 L 92.352 3.013 Q 92.352 0.073 95.292 0.073 L 111.672 0.073 Q 118.077 0.073 121.489 3.485 Q 124.902 6.898 124.902 13.303 L 124.902 15.403 Q 124.902 21.808 121.489 25.22 Q 118.077 28.633 111.672 28.633 L 98.232 28.633 L 98.232 44.593 Q 98.232 47.533 95.292 47.533 Q 92.352 47.533 92.352 44.593 Z M 98.232 5.953 L 98.232 22.753 L 111.672 22.753 Q 115.662 22.753 117.342 21.073 Q 119.022 19.393 119.022 15.403 L 119.022 13.303 Q 119.022 9.348 117.342 7.65 Q 115.662 5.953 111.672 5.953 L 98.232 5.953 Z" id="2" vector-effect="non-scaling-stroke"/>
        <path d="M 146.532 44.593 L 146.532 6.023 L 132.952 6.023 Q 131.482 6.023 130.747 5.288 Q 130.012 4.553 130.012 3.083 Q 130.012 1.613 130.747 0.878 Q 131.482 0.143 132.952 0.143 L 165.992 0.143 Q 167.462 0.143 168.197 0.878 Q 168.932 1.613 168.932 3.083 Q 168.932 4.553 168.197 5.288 Q 167.462 6.023 165.992 6.023 L 152.412 6.023 L 152.412 44.593 Q 152.412 45.993 151.659 46.763 Q 150.907 47.533 149.472 47.533 Q 148.002 47.533 147.267 46.798 Q 146.532 46.063 146.532 44.593 Z" id="3" vector-effect="non-scaling-stroke"/>
        <path d="M 206.312 47.533 L 181.182 47.533 Q 178.242 47.533 178.242 44.593 L 178.242 3.013 Q 178.242 0.073 181.182 0.073 L 206.312 0.073 Q 209.252 0.073 209.252 3.013 Q 209.252 5.953 206.312 5.953 L 184.122 5.953 L 184.122 20.653 L 198.052 20.653 Q 200.992 20.653 200.992 23.593 Q 200.992 26.533 198.052 26.533 L 184.122 26.533 L 184.122 41.653 L 206.312 41.653 Q 209.252 41.653 209.252 44.593 Q 209.252 47.533 206.312 47.533 Z" id="4" vector-effect="non-scaling-stroke"/>
        <path d="M 220.452 44.593 L 220.452 3.013 Q 220.452 0.073 223.392 0.073 Q 225.317 0.073 226.612 1.963 L 243.132 26.813 L 241.872 27.023 L 258.532 1.963 Q 259.722 0.073 262.102 0.073 Q 264.482 0.073 264.482 3.013 L 264.482 44.593 Q 264.482 47.533 261.542 47.533 Q 258.602 47.533 258.602 44.593 L 258.602 8.893 L 260.422 9.523 L 245.722 31.153 Q 244.427 33.043 242.152 33.043 Q 240.577 33.043 239.282 31.153 L 224.582 9.523 L 226.332 10.013 L 226.332 44.593 Q 226.332 47.533 223.392 47.533 Q 220.452 47.533 220.452 44.593 Z" id="5" vector-effect="non-scaling-stroke"/>
        <path d="M 301.162 47.533 L 281.982 47.533 Q 279.042 47.533 279.042 44.593 L 279.042 3.013 Q 279.042 0.073 281.982 0.073 L 300.252 0.073 Q 305.817 0.073 308.809 3.013 Q 311.802 5.953 311.802 11.413 L 311.802 13.303 Q 311.802 18.028 308.827 20.618 Q 314.392 23.733 314.392 31.993 L 314.392 34.373 Q 314.392 40.813 310.979 44.173 Q 307.567 47.533 301.162 47.533 Z M 284.922 24.783 L 284.922 41.653 L 301.162 41.653 Q 305.117 41.653 306.814 39.955 Q 308.512 38.258 308.512 34.373 L 308.512 31.993 Q 308.512 28.108 306.867 26.445 Q 305.222 24.783 301.162 24.783 L 284.922 24.783 Z M 284.922 5.953 L 284.922 18.903 L 301.512 18.903 Q 304.067 18.903 304.994 17.328 Q 305.922 15.753 305.922 13.303 L 305.922 11.413 Q 305.922 8.368 304.662 7.16 Q 303.402 5.953 300.252 5.953 L 284.922 5.953 Z" id="6" vector-effect="non-scaling-stroke"/>
        <path d="M 354.222 47.533 L 329.092 47.533 Q 326.152 47.533 326.152 44.593 L 326.152 3.013 Q 326.152 0.073 329.092 0.073 L 354.222 0.073 Q 357.162 0.073 357.162 3.013 Q 357.162 5.953 354.222 5.953 L 332.032 5.953 L 332.032 20.653 L 345.962 20.653 Q 348.902 20.653 348.902 23.593 Q 348.902 26.533 345.962 26.533 L 332.032 26.533 L 332.032 41.653 L 354.222 41.653 Q 357.162 41.653 357.162 44.593 Q 357.162 47.533 354.222 47.533 Z" id="7" vector-effect="non-scaling-stroke"/>
        <path d="M 394.892 46.693 L 384.042 28.633 L 374.242 28.633 L 374.242 44.593 Q 374.242 47.533 371.302 47.533 Q 368.362 47.533 368.362 44.593 L 368.362 3.013 Q 368.362 0.073 371.302 0.073 L 387.682 0.073 Q 394.087 0.073 397.499 3.485 Q 400.912 6.898 400.912 13.303 L 400.912 15.403 Q 400.912 20.968 398.322 24.275 Q 395.732 27.583 390.832 28.388 L 400.002 43.683 Q 401.332 46.133 398.882 47.673 Q 397.727 48.408 396.677 48.128 Q 395.627 47.848 394.892 46.693 Z M 374.242 5.953 L 374.242 22.753 L 387.682 22.753 Q 391.672 22.753 393.352 21.073 Q 395.032 19.393 395.032 15.403 L 395.032 13.303 Q 395.032 9.348 393.352 7.65 Q 391.672 5.953 387.682 5.953 L 374.242 5.953 Z" id="8" vector-effect="non-scaling-stroke"/>
        <path d="M 441.162 44.593 L 441.162 8.473 L 442.772 7.353 L 435.072 14.563 Q 434.197 15.403 433.217 15.56 Q 432.237 15.718 431.292 14.773 Q 429.402 12.883 431.502 10.783 L 440.882 1.543 Q 442.352 0.073 444.522 0.073 Q 447.042 0.073 447.042 3.013 L 447.042 44.593 Q 447.042 47.533 444.102 47.533 Q 441.162 47.533 441.162 44.593 Z" id="10" vector-effect="non-scaling-stroke"/>
        <path d="M 487.012 47.533 L 460.832 47.533 Q 457.822 47.533 457.822 44.593 Q 457.822 39.903 459.309 36.595 Q 460.797 33.288 463.124 30.995 Q 465.452 28.703 468.077 27.11 Q 470.702 25.518 472.942 24.223 Q 476.827 22.018 479.434 20.408 Q 482.042 18.798 483.337 17.118 Q 484.632 15.438 484.632 13.023 Q 484.632 8.858 483.144 7.405 Q 481.657 5.953 477.562 5.953 L 470.072 5.953 Q 466.782 5.953 465.207 6.828 Q 463.632 7.703 463.212 10.083 Q 462.967 11.483 462.267 12.218 Q 461.567 12.953 460.132 12.953 Q 458.662 12.953 457.892 12.165 Q 457.122 11.378 457.262 9.873 Q 457.997 4.938 461.147 2.505 Q 464.297 0.073 470.072 0.073 L 477.562 0.073 Q 484.142 0.073 487.327 3.258 Q 490.512 6.443 490.512 13.023 Q 490.512 17.223 488.447 20.04 Q 486.382 22.858 483.022 25.01 Q 479.662 27.163 475.812 29.333 Q 473.012 30.943 470.509 32.553 Q 468.007 34.163 466.239 36.298 Q 464.472 38.433 463.912 41.653 L 487.012 41.653 Q 489.952 41.653 489.952 44.593 Q 489.952 47.533 487.012 47.533 Z" id="11" vector-effect="non-scaling-stroke"/>
        <path d="M 519.842 31.083 L 500.522 31.083 Q 499.542 31.083 498.807 30.348 Q 498.072 29.613 498.072 28.633 Q 498.072 27.618 498.807 26.9 Q 499.542 26.183 500.522 26.183 L 519.842 26.183 Q 520.857 26.183 521.574 26.9 Q 522.292 27.618 522.292 28.633 Q 522.292 29.613 521.574 30.348 Q 520.857 31.083 519.842 31.083 Z" id="12" vector-effect="non-scaling-stroke"/>
        <path d="M 542.522 44.593 L 542.522 8.473 L 544.132 7.353 L 536.432 14.563 Q 535.557 15.403 534.577 15.56 Q 533.597 15.718 532.652 14.773 Q 530.762 12.883 532.862 10.783 L 542.242 1.543 Q 543.712 0.073 545.882 0.073 Q 548.402 0.073 548.402 3.013 L 548.402 44.593 Q 548.402 47.533 545.462 47.533 Q 542.522 47.533 542.522 44.593 Z" id="13" vector-effect="non-scaling-stroke"/>
        <path d="M 581.652 44.593 L 581.722 6.933 L 584.032 5.253 L 563.312 33.323 L 562.822 31.853 L 591.592 31.713 Q 593.027 31.713 593.779 32.553 Q 594.532 33.393 594.532 34.653 Q 594.532 37.593 591.592 37.593 L 560.022 37.593 Q 557.082 37.593 557.082 34.653 Q 557.082 33.253 558.272 31.573 L 580.252 1.893 Q 581.162 0.668 582.124 0.37 Q 583.087 0.073 584.382 0.073 Q 587.602 0.073 587.602 3.013 L 587.532 44.593 Q 587.532 47.533 584.592 47.533 Q 581.652 47.533 581.652 44.593 Z" id="14" vector-effect="non-scaling-stroke"/>
        <path d="M 600.692 53.973 L 602.652 42.808 Q 602.757 40.253 605.452 40.253 L 607.132 40.253 Q 609.792 40.253 609.792 42.983 L 609.792 44.733 Q 609.792 45.328 609.599 45.905 Q 609.407 46.483 609.127 47.043 L 605.452 54.883 Q 604.612 56.423 603.142 56.423 Q 601.882 56.423 601.199 55.793 Q 600.517 55.163 600.692 53.973 Z" id="15" vector-effect="non-scaling-stroke"/>
        <path d="M 670.622 47.533 L 644.442 47.533 Q 641.432 47.533 641.432 44.593 Q 641.432 39.903 642.919 36.595 Q 644.407 33.288 646.734 30.995 Q 649.062 28.703 651.687 27.11 Q 654.312 25.518 656.552 24.223 Q 660.437 22.018 663.044 20.408 Q 665.652 18.798 666.947 17.118 Q 668.242 15.438 668.242 13.023 Q 668.242 8.858 666.754 7.405 Q 665.267 5.953 661.172 5.953 L 653.682 5.953 Q 650.392 5.953 648.817 6.828 Q 647.242 7.703 646.822 10.083 Q 646.577 11.483 645.877 12.218 Q 645.177 12.953 643.742 12.953 Q 642.272 12.953 641.502 12.165 Q 640.732 11.378 640.872 9.873 Q 641.607 4.938 644.757 2.505 Q 647.907 0.073 653.682 0.073 L 661.172 0.073 Q 667.752 0.073 670.937 3.258 Q 674.122 6.443 674.122 13.023 Q 674.122 17.223 672.057 20.04 Q 669.992 22.858 666.632 25.01 Q 663.272 27.163 659.422 29.333 Q 656.622 30.943 654.119 32.553 Q 651.617 34.163 649.849 36.298 Q 648.082 38.433 647.522 41.653 L 670.622 41.653 Q 673.562 41.653 673.562 44.593 Q 673.562 47.533 670.622 47.533 Z" id="17" vector-effect="non-scaling-stroke"/>
        <path d="M 703.942 47.463 L 699.742 47.463 Q 691.727 47.463 687.894 43.63 Q 684.062 39.798 684.062 31.783 L 684.062 15.613 Q 684.062 7.528 687.894 3.713 Q 691.727 -0.102 699.742 0.003 L 703.942 0.003 Q 711.992 0.003 715.807 3.8 Q 719.622 7.598 719.622 15.683 L 719.622 31.783 Q 719.622 39.798 715.807 43.63 Q 711.992 47.463 703.942 47.463 Z M 699.742 41.583 L 703.942 41.583 Q 707.687 41.583 709.822 40.673 Q 711.957 39.763 712.849 37.628 Q 713.742 35.493 713.742 31.783 L 713.742 15.683 Q 713.742 11.938 712.849 9.803 Q 711.957 7.668 709.822 6.775 Q 707.687 5.883 703.942 5.883 L 699.742 5.883 Q 696.032 5.813 693.897 6.67 Q 691.762 7.528 690.852 9.68 Q 689.942 11.833 689.942 15.613 L 689.942 31.783 Q 689.942 35.493 690.834 37.628 Q 691.727 39.763 693.862 40.673 Q 695.997 41.583 699.742 41.583 Z M 702.682 27.163 L 701.002 27.163 Q 698.202 27.163 698.202 24.363 L 698.202 22.613 Q 698.202 19.883 701.002 19.883 L 702.682 19.883 Q 705.342 19.883 705.342 22.613 L 705.342 24.363 Q 705.342 27.163 702.682 27.163 Z" id="18" vector-effect="non-scaling-stroke"/>
        <path d="M 758.752 47.533 L 732.572 47.533 Q 729.562 47.533 729.562 44.593 Q 729.562 39.903 731.049 36.595 Q 732.537 33.288 734.864 30.995 Q 737.192 28.703 739.817 27.11 Q 742.442 25.518 744.682 24.223 Q 748.567 22.018 751.174 20.408 Q 753.782 18.798 755.077 17.118 Q 756.372 15.438 756.372 13.023 Q 756.372 8.858 754.884 7.405 Q 753.397 5.953 749.302 5.953 L 741.812 5.953 Q 738.522 5.953 736.947 6.828 Q 735.372 7.703 734.952 10.083 Q 734.707 11.483 734.007 12.218 Q 733.307 12.953 731.872 12.953 Q 730.402 12.953 729.632 12.165 Q 728.862 11.378 729.002 9.873 Q 729.737 4.938 732.887 2.505 Q 736.037 0.073 741.812 0.073 L 749.302 0.073 Q 755.882 0.073 759.067 3.258 Q 762.252 6.443 762.252 13.023 Q 762.252 17.223 760.187 20.04 Q 758.122 22.858 754.762 25.01 Q 751.402 27.163 747.552 29.333 Q 744.752 30.943 742.249 32.553 Q 739.747 34.163 737.979 36.298 Q 736.212 38.433 735.652 41.653 L 758.752 41.653 Q 761.692 41.653 761.692 44.593 Q 761.692 47.533 758.752 47.533 Z" id="19" vector-effect="non-scaling-stroke"/>
        <path d="M 792.982 47.533 L 785.702 47.533 Q 779.577 47.533 776.234 44.96 Q 772.892 42.388 772.192 37.033 Q 772.052 35.563 772.822 34.758 Q 773.592 33.953 775.062 33.953 Q 777.757 33.953 778.072 36.823 Q 778.562 39.553 780.277 40.603 Q 781.992 41.653 785.702 41.653 L 792.982 41.653 Q 797.497 41.653 799.124 39.99 Q 800.752 38.328 800.752 33.883 L 800.752 29.053 Q 800.752 24.538 799.107 22.91 Q 797.462 21.283 792.982 21.283 L 787.802 21.283 Q 782.622 21.283 780.312 22.543 Q 779.262 23.173 778.404 23.488 Q 777.547 23.803 776.392 23.453 L 775.692 23.243 Q 773.242 22.543 773.242 19.953 L 773.242 3.013 Q 773.242 0.073 776.182 0.073 L 803.692 0.073 Q 806.632 0.073 806.632 3.013 Q 806.632 5.953 803.692 5.953 L 779.122 5.953 L 779.122 16.663 Q 782.692 15.403 787.802 15.403 L 792.982 15.403 Q 799.912 15.403 803.272 18.763 Q 806.632 22.123 806.632 29.053 L 806.632 33.883 Q 806.632 40.813 803.272 44.173 Q 799.912 47.533 792.982 47.533 Z" id="20" vector-effect="non-scaling-stroke"/>
    </g>
</g>

</svg> 