<svg width="803.726" height="143.159" viewBox="-2 -20 805.726 143.159" xmlns="http://www.w3.org/2000/svg"><g id="svgGroup" stroke-linecap="round" fill-rule="evenodd" font-size="9pt" stroke="#aa33ff" stroke-width="5" fill="#ff57ff" style="stroke:#aa33ff;stroke-width:5;fill:#ff57ff"><path d="M 0.001 96.675 L 0.001 6.387 Q 0.001 0.003 6.385 0.003 Q 10.565 0.003 13.377 4.107 L 49.249 58.067 L 46.513 58.523 L 82.689 4.107 Q 85.273 0.003 90.441 0.003 Q 95.609 0.003 95.609 6.387 L 95.609 96.675 Q 95.609 103.059 89.225 103.059 Q 82.841 103.059 82.841 96.675 L 82.841 19.155 L 86.793 20.523 L 54.873 67.491 Q 52.061 71.595 47.121 71.595 Q 43.701 71.595 40.889 67.491 L 8.969 20.523 L 12.769 21.587 L 12.769 96.675 Q 12.769 103.059 6.385 103.059 Q 0.001 103.059 0.001 96.675 Z" id="0" vector-effect="non-scaling-stroke"/><path d="M 188.177 103.059 L 133.609 103.059 Q 127.225 103.059 127.225 96.675 L 127.225 6.387 Q 127.225 0.003 133.609 0.003 L 188.177 0.003 Q 194.561 0.003 194.561 6.387 Q 194.561 12.771 188.177 12.771 L 139.993 12.771 L 139.993 44.691 L 170.241 44.691 Q 176.625 44.691 176.625 51.075 Q 176.625 57.459 170.241 57.459 L 139.993 57.459 L 139.993 90.291 L 188.177 90.291 Q 194.561 90.291 194.561 96.675 Q 194.561 103.059 188.177 103.059 Z" id="1" vector-effect="non-scaling-stroke"/><path d="M 243.353 96.675 L 243.353 12.923 L 213.865 12.923 Q 210.673 12.923 209.077 11.327 Q 207.481 9.731 207.481 6.539 Q 207.481 3.347 209.077 1.751 Q 210.673 0.155 213.865 0.155 L 285.609 0.155 Q 288.801 0.155 290.397 1.751 Q 291.993 3.347 291.993 6.539 Q 291.993 9.731 290.397 11.327 Q 288.801 12.923 285.609 12.923 L 256.121 12.923 L 256.121 96.675 Q 256.121 99.715 254.487 101.387 Q 252.853 103.059 249.737 103.059 Q 246.545 103.059 244.949 101.463 Q 243.353 99.867 243.353 96.675 Z" id="2" vector-effect="non-scaling-stroke"/><path d="M 291.537 94.091 L 327.713 5.019 Q 329.993 0.003 334.857 0.003 L 335.161 0.003 Q 340.101 0.231 341.849 5.019 L 378.633 94.091 Q 381.065 100.095 375.137 102.451 Q 369.133 104.807 366.777 98.955 L 358.569 79.043 L 311.221 79.043 L 303.393 98.955 Q 301.037 104.883 295.185 102.451 Q 289.105 100.095 291.537 94.091 Z M 334.401 20.219 L 316.237 66.275 L 353.325 66.275 L 334.401 20.219 Z" id="3" vector-effect="non-scaling-stroke"/><path d="M 448.401 103.059 L 430.161 103.059 Q 412.757 103.059 404.435 94.737 Q 396.113 86.415 396.113 69.011 L 396.113 34.051 Q 396.113 16.495 404.397 8.173 Q 412.681 -0.149 430.009 0.003 L 448.401 0.003 Q 462.689 0.003 470.213 5.893 Q 477.737 11.783 478.953 24.475 Q 479.409 27.667 477.737 29.339 Q 476.065 31.011 472.873 31.011 Q 467.097 31.011 466.185 24.627 Q 465.425 17.635 461.359 15.203 Q 457.293 12.771 448.401 12.771 L 430.009 12.771 Q 421.953 12.695 417.355 14.595 Q 412.757 16.495 410.819 21.169 Q 408.881 25.843 408.881 34.051 L 408.881 69.011 Q 408.881 77.143 410.819 81.779 Q 412.757 86.415 417.393 88.353 Q 422.029 90.291 430.161 90.291 L 448.401 90.291 Q 455.469 90.291 459.459 88.733 Q 463.449 87.175 465.045 83.223 Q 466.641 79.271 466.641 72.051 L 466.641 64.907 L 454.785 64.755 Q 448.401 64.755 448.401 58.371 Q 448.401 51.987 454.785 51.987 L 473.025 52.139 Q 479.409 52.139 479.409 58.523 L 479.409 72.051 Q 479.409 88.239 471.885 95.649 Q 464.361 103.059 448.401 103.059 Z" id="4" vector-effect="non-scaling-stroke"/><path d="M 497.421 94.091 L 533.597 5.019 Q 535.877 0.003 540.741 0.003 L 541.045 0.003 Q 545.985 0.231 547.733 5.019 L 584.517 94.091 Q 586.949 100.095 581.021 102.451 Q 575.017 104.807 572.661 98.955 L 564.453 79.043 L 517.105 79.043 L 509.277 98.955 Q 506.921 104.883 501.069 102.451 Q 494.989 100.095 497.421 94.091 Z M 540.285 20.219 L 522.121 66.275 L 559.209 66.275 L 540.285 20.219 Z" id="5" vector-effect="non-scaling-stroke"/><path d="M 607.165 96.675 L 607.165 6.387 Q 607.165 0.003 613.549 0.003 Q 617.729 0.003 620.541 4.107 L 656.413 58.067 L 653.677 58.523 L 689.853 4.107 Q 692.437 0.003 697.605 0.003 Q 702.773 0.003 702.773 6.387 L 702.773 96.675 Q 702.773 103.059 696.389 103.059 Q 690.005 103.059 690.005 96.675 L 690.005 19.155 L 693.957 20.523 L 662.037 67.491 Q 659.225 71.595 654.285 71.595 Q 650.865 71.595 648.053 67.491 L 616.133 20.523 L 619.933 21.587 L 619.933 96.675 Q 619.933 103.059 613.549 103.059 Q 607.165 103.059 607.165 96.675 Z" id="6" vector-effect="non-scaling-stroke"/><path d="M 795.341 103.059 L 740.773 103.059 Q 734.389 103.059 734.389 96.675 L 734.389 6.387 Q 734.389 0.003 740.773 0.003 L 795.341 0.003 Q 801.725 0.003 801.725 6.387 Q 801.725 12.771 795.341 12.771 L 747.157 12.771 L 747.157 44.691 L 777.405 44.691 Q 783.789 44.691 783.789 51.075 Q 783.789 57.459 777.405 57.459 L 747.157 57.459 L 747.157 90.291 L 795.341 90.291 Q 801.725 90.291 801.725 96.675 Q 801.725 103.059 795.341 103.059 Z" id="7" vector-effect="non-scaling-stroke"/></g></svg>