<svg width="799.177" height="171.802" viewBox="-4 -35 799.177 171.802" xmlns="http://www.w3.org/2000/svg"><g id="svgGroup" stroke-linecap="round" fill-rule="nonzero" font-size="9pt" stroke="#aa33ff" stroke-width="5" fill="#ff57ff" style="stroke:#aa33ff;stroke-width:5;fill:#ff57ff"><path d="M 0.001 95.403 L 0.001 6.303 Q 0.001 0.003 6.301 0.003 Q 10.426 0.003 13.201 4.053 L 48.601 57.303 L 45.901 57.753 L 81.601 4.053 Q 84.151 0.003 89.251 0.003 Q 94.351 0.003 94.351 6.303 L 94.351 95.403 Q 94.351 101.703 88.051 101.703 Q 81.751 101.703 81.751 95.403 L 81.751 18.903 L 85.651 20.253 L 54.151 66.603 Q 51.376 70.653 46.501 70.653 Q 43.126 70.653 40.351 66.603 L 8.851 20.253 L 12.601 21.303 L 12.601 95.403 Q 12.601 101.703 6.301 101.703 Q 0.001 101.703 0.001 95.403 Z" id="0" vector-effect="non-scaling-stroke"/><path d="M 185.701 101.703 L 131.851 101.703 Q 125.551 101.703 125.551 95.403 L 125.551 6.303 Q 125.551 0.003 131.851 0.003 L 185.701 0.003 Q 192.001 0.003 192.001 6.303 Q 192.001 12.603 185.701 12.603 L 138.151 12.603 L 138.151 44.103 L 168.001 44.103 Q 174.301 44.103 174.301 50.403 Q 174.301 56.703 168.001 56.703 L 138.151 56.703 L 138.151 89.103 L 185.701 89.103 Q 192.001 89.103 192.001 95.403 Q 192.001 101.703 185.701 101.703 Z" id="1" vector-effect="non-scaling-stroke"/><path d="M 240.151 95.403 L 240.151 12.753 L 211.051 12.753 Q 207.901 12.753 206.326 11.178 Q 204.751 9.603 204.751 6.453 Q 204.751 3.303 206.326 1.728 Q 207.901 0.153 211.051 0.153 L 281.851 0.153 Q 285.001 0.153 286.576 1.728 Q 288.151 3.303 288.151 6.453 Q 288.151 9.603 286.576 11.178 Q 285.001 12.753 281.851 12.753 L 252.751 12.753 L 252.751 95.403 Q 252.751 98.403 251.138 100.053 Q 249.526 101.703 246.451 101.703 Q 243.301 101.703 241.726 100.128 Q 240.151 98.553 240.151 95.403 Z" id="2" vector-effect="non-scaling-stroke"/><path d="M 287.701 92.853 L 323.401 4.953 Q 325.651 0.003 330.451 0.003 L 330.751 0.003 Q 335.626 0.228 337.351 4.953 L 373.651 92.853 Q 376.051 98.778 370.201 101.103 Q 364.276 103.428 361.951 97.653 L 353.851 78.003 L 307.126 78.003 L 299.401 97.653 Q 297.076 103.503 291.301 101.103 Q 285.301 98.778 287.701 92.853 Z M 330.001 19.953 L 312.076 65.403 L 348.676 65.403 L 330.001 19.953 Z" id="3" vector-effect="non-scaling-stroke"/><path d="M 442.501 101.703 L 424.501 101.703 Q 407.326 101.703 399.113 93.491 Q 390.901 85.278 390.901 68.103 L 390.901 33.603 Q 390.901 16.278 399.076 8.066 Q 407.251 -0.147 424.351 0.003 L 442.501 0.003 Q 456.601 0.003 464.026 5.816 Q 471.451 11.628 472.651 24.153 Q 473.101 27.303 471.451 28.953 Q 469.801 30.603 466.651 30.603 Q 460.951 30.603 460.051 24.303 Q 459.301 17.403 455.288 15.003 Q 451.276 12.603 442.501 12.603 L 424.351 12.603 Q 416.401 12.528 411.863 14.403 Q 407.326 16.278 405.413 20.891 Q 403.501 25.503 403.501 33.603 L 403.501 68.103 Q 403.501 76.128 405.413 80.703 Q 407.326 85.278 411.901 87.191 Q 416.476 89.103 424.501 89.103 L 442.501 89.103 Q 449.476 89.103 453.413 87.566 Q 457.351 86.028 458.926 82.128 Q 460.501 78.228 460.501 71.103 L 460.501 64.053 L 448.801 63.903 Q 442.501 63.903 442.501 57.603 Q 442.501 51.303 448.801 51.303 L 466.801 51.453 Q 473.101 51.453 473.101 57.753 L 473.101 71.103 Q 473.101 87.078 465.676 94.391 Q 458.251 101.703 442.501 101.703 Z" id="4" vector-effect="non-scaling-stroke"/><path d="M 490.876 92.853 L 526.576 4.953 Q 528.826 0.003 533.626 0.003 L 533.926 0.003 Q 538.801 0.228 540.526 4.953 L 576.826 92.853 Q 579.226 98.778 573.376 101.103 Q 567.451 103.428 565.126 97.653 L 557.026 78.003 L 510.301 78.003 L 502.576 97.653 Q 500.251 103.503 494.476 101.103 Q 488.476 98.778 490.876 92.853 Z M 533.176 19.953 L 515.251 65.403 L 551.851 65.403 L 533.176 19.953 Z" id="5" vector-effect="non-scaling-stroke"/><path d="M 599.176 95.403 L 599.176 6.303 Q 599.176 0.003 605.476 0.003 Q 609.601 0.003 612.376 4.053 L 647.776 57.303 L 645.076 57.753 L 680.776 4.053 Q 683.326 0.003 688.426 0.003 Q 693.526 0.003 693.526 6.303 L 693.526 95.403 Q 693.526 101.703 687.226 101.703 Q 680.926 101.703 680.926 95.403 L 680.926 18.903 L 684.826 20.253 L 653.326 66.603 Q 650.551 70.653 645.676 70.653 Q 642.301 70.653 639.526 66.603 L 608.026 20.253 L 611.776 21.303 L 611.776 95.403 Q 611.776 101.703 605.476 101.703 Q 599.176 101.703 599.176 95.403 Z" id="6" vector-effect="non-scaling-stroke"/><path d="M 784.876 101.703 L 731.026 101.703 Q 724.726 101.703 724.726 95.403 L 724.726 6.303 Q 724.726 0.003 731.026 0.003 L 784.876 0.003 Q 791.176 0.003 791.176 6.303 Q 791.176 12.603 784.876 12.603 L 737.326 12.603 L 737.326 44.103 L 767.176 44.103 Q 773.476 44.103 773.476 50.403 Q 773.476 56.703 767.176 56.703 L 737.326 56.703 L 737.326 89.103 L 784.876 89.103 Q 791.176 89.103 791.176 95.403 Q 791.176 101.703 784.876 101.703 Z" id="7" vector-effect="non-scaling-stroke"/></g></svg>