<?xml version="1.0" encoding="UTF-8"?>
<svg xmlns="http://www.w3.org/2000/svg" viewBox="0 0 116 36">
  <defs>
    <linearGradient id="mortyGradient" x1="20.589" x2="20.589" y1="35.987" y2="0.001" gradientUnits="userSpaceOnUse">
      <stop stop-color="#90278e"/>
      <stop offset="1" stop-color="#ec297b"/>
    </linearGradient>
  </defs>
  <path fill="url(#mortyGradient)" d="M20.025.001H.306a.28.28 0 00-.305.256.283.283 0 00.25.312l15.298 3.285a.564.564 0 01.444.567v27.175a.564.564 0 01-.444.567L.251 35.431a.283.283 0 00-.25.312.28.28 0 00.305.256h19.719a.56.56 0 00.554-.568V.57a.56.56 0 00-.554-.57z"/>
  <ellipse cx="12.711" cy="19.2" fill="#FFFFFF" rx="0.605" ry="1.2"/>
  <g fill="#FFFFFF">
    <path d="M48.05 15.001L43.164 23.5h-.397l-4.887-8.69h-.08V27.6h-3.903V8.4h4.392l4.666 8.996h.055l3.414-6.662a4.271 4.271 0 013.8-2.334h1.832v19.2H48.16V15.001h-.11z"/>
    <path fill-rule="evenodd" d="M61.747 13.2c-4.516 0-7.267 2.746-7.267 7.2 0 4.454 2.751 7.2 7.267 7.2 4.515 0 7.26-2.746 7.26-7.2 0-4.454-2.745-7.2-7.26-7.2zm2.97 6.107v2.186c0 2.03-1.118 3.176-2.97 3.176-1.853 0-2.977-1.147-2.977-3.177v-2.185c0-2.023 1.13-3.17 2.976-3.17 1.847 0 2.97 1.146 2.97 3.17z" clip-rule="evenodd"/>
    <path d="M73.464 24.365v-7.96h-3.25V13.2h7.288v3.74h.19c.61-1.87 1.936-3.74 4.5-3.74h1.339v3.784h-3c-1.801 0-3.054.81-3.054 2.425v4.987h4.636V27.6H70.216v-3.204l3.25-.031zm15.086-.866v-6.355h-3.808v-3.738h2.473c1.219 0 1.663-.412 1.663-1.675V8.4h3.698v5.006h5.482v3.165h-5.482v7.864h5.482V27.6h-5.196c-2.924 0-4.313-1.706-4.313-4.101zM115.002 13.2l-6.57 15.5-.238.565c-.841 2.012-2.157 3.135-4.621 3.135h-2.853v-3.075h2.414c.677 0 1.097-.216 1.304-.642.046-.086.079-.177.1-.27l.552-1.448-.47-1.111-5.354-12.648h4.451l2.1 5.82 1.317 4.023h.219l1.254-4.024 2.157-5.819 4.238-.006z"/>
  </g>
</svg>