<svg width="806.632" height="56.423" viewBox="0 0 806.632 56.423" xmlns="http://www.w3.org/2000/svg"><g id="svgGroup" stroke-linecap="round" fill-rule="nonzero" font-size="9pt" stroke="#aa33ff" stroke-width="2" fill="#ff57ff" style="stroke:#aa33ff;stroke-width:2;fill:#ff57ff"><path d="M 23.612 47.533 L 13.532 47.533 Q 7.547 47.533 4.204 45.118 Q 0.862 42.703 0.022 37.663 Q -0.118 36.123 0.652 35.353 Q 1.422 34.583 2.892 34.583 Q 4.362 34.583 5.044 35.283 Q 5.727 35.983 5.972 37.453 Q 6.497 39.868 8.229 40.76 Q 9.962 41.653 13.532 41.653 L 23.612 41.653 Q 28.127 41.653 29.754 40.025 Q 31.382 38.398 31.382 33.953 Q 31.382 29.438 29.702 27.775 Q 28.022 26.113 23.612 26.113 L 14.932 26.113 Q 8.317 26.113 5.114 22.875 Q 1.912 19.638 1.912 13.023 Q 1.912 6.443 5.079 3.258 Q 8.247 0.073 14.862 0.073 L 23.192 0.073 Q 28.757 0.073 31.924 2.348 Q 35.092 4.623 35.932 9.313 Q 36.142 10.818 35.372 11.605 Q 34.602 12.393 33.062 12.393 Q 31.662 12.393 30.962 11.658 Q 30.262 10.923 30.052 9.523 Q 29.492 7.458 27.917 6.705 Q 26.342 5.953 23.192 5.953 L 14.862 5.953 Q 10.662 5.953 9.227 7.44 Q 7.792 8.928 7.792 13.023 Q 7.792 17.153 9.262 18.693 Q 10.732 20.233 14.932 20.233 L 23.612 20.233 Q 30.507 20.233 33.884 23.593 Q 37.262 26.953 37.262 33.953 Q 37.262 40.918 33.902 44.225 Q 30.542 47.533 23.612 47.533 Z" id="0" vector-effect="non-scaling-stroke"/><path d="M 78.212 47.533 L 53.082 47.533 Q 50.142 47.533 50.142 44.593 L 50.142 3.013 Q 50.142 0.073 53.082 0.073 L 78.212 0.073 Q 81.152 0.073 81.152 3.013 Q 81.152 5.953 78.212 5.953 L 56.022 5.953 L 56.022 20.653 L 69.952 20.653 Q 72.892 20.653 72.892 23.593 Q 72.892 26.533 69.952 26.533 L 56.022 26.533 L 56.022 41.653 L 78.212 41.653 Q 81.152 41.653 81.152 44.593 Q 81.152 47.533 78.212 47.533 Z" id="1" vector-effect="non-scaling-stroke"/><path d="M 92.352 44.593 L 92.352 3.013 Q 92.352 0.073 95.292 0.073 L 111.672 0.073 Q 118.077 0.073 121.489 3.485 Q 124.902 6.898 124.902 13.303 L 124.902 15.403 Q 124.902 21.808 121.489 25.22 Q 118.077 28.633 111.672 28.633 L 98.232 28.633 L 98.232 44.593 Q 98.232 47.533 95.292 47.533 Q 92.352 47.533 92.352 44.593 Z M 98.232 5.953 L 98.232 22.753 L 111.672 22.753 Q 115.662 22.753 117.342 21.073 Q 119.022 19.393 119.022 15.403 L 119.022 13.303 Q 119.022 9.348 117.342 7.65 Q 115.662 5.953 111.672 5.953 L 98.232 5.953 Z" id="2" vector-effect="non-scaling-stroke"/><path d="M 146.532 44.593 L 146.532 6.023 L 132.952 6.023 Q 131.482 6.023 130.747 5.288 Q 130.012 4.553 130.012 3.083 Q 130.012 1.613 130.747 0.878 Q 131.482 0.143 132.952 0.143 L 165.992 0.143 Q 167.462 0.143 168.197 0.878 Q 168.932 1.613 168.932 3.083 Q 168.932 4.553 168.197 5.288 Q 167.462 6.023 165.992 6.023 L 152.412 6.023 L 152.412 44.593 Q 152.412 45.993 151.659 46.763 Q 150.907 47.533 149.472 47.533 Q 148.002 47.533 147.267 46.798 Q 146.532 46.063 146.532 44.593 Z" id="3" vector-effect="non-scaling-stroke"/><path d="M 206.312 47.533 L 181.182 47.533 Q 178.242 47.533 178.242 44.593 L 178.242 3.013 Q 178.242 0.073 181.182 0.073 L 206.312 0.073 Q 209.252 0.073 209.252 3.013 Q 209.252 5.953 206.312 5.953 L 184.122 5.953 L 184.122 20.653 L 198.052 20.653 Q 200.992 20.653 200.992 23.593 Q 200.992 26.533 198.052 26.533 L 184.122 26.533 L 184.122 41.653 L 206.312 41.653 Q 209.252 41.653 209.252 44.593 Q 209.252 47.533 206.312 47.533 Z" id="4" vector-effect="non-scaling-stroke"/><path d="M 220.452 44.593 L 220.452 3.013 Q 220.452 0.073 223.392 0.073 Q 225.317 0.073 226.612 1.963 L 243.132 26.813 L 241.872 27.023 L 258.532 1.963 Q 259.722 0.073 262.102 0.073 Q 264.482 0.073 264.482 3.013 L 264.482 44.593 Q 264.482 47.533 261.542 47.533 Q 258.602 47.533 258.602 44.593 L 258.602 8.893 L 260.422 9.523 L 245.722 31.153 Q 244.427 33.043 242.152 33.043 Q 240.577 33.043 239.282 31.153 L 224.582 9.523 L 226.332 10.013 L 226.332 44.593 Q 226.332 47.533 223.392 47.533 Q 220.452 47.533 220.452 44.593 Z" id="5" vector-effect="non-scaling-stroke"/><path d="M 301.162 47.533 L 281.982 47.533 Q 279.042 47.533 279.042 44.593 L 279.042 3.013 Q 279.042 0.073 281.982 0.073 L 300.252 0.073 Q 305.817 0.073 308.809 3.013 Q 311.802 5.953 311.802 11.413 L 311.802 13.303 Q 311.802 18.028 308.827 20.618 Q 314.392 23.733 314.392 31.993 L 314.392 34.373 Q 314.392 40.813 310.979 44.173 Q 307.567 47.533 301.162 47.533 Z M 284.922 24.783 L 284.922 41.653 L 301.162 41.653 Q 305.117 41.653 306.814 39.955 Q 308.512 38.258 308.512 34.373 L 308.512 31.993 Q 308.512 28.108 306.867 26.445 Q 305.222 24.783 301.162 24.783 L 284.922 24.783 Z M 284.922 5.953 L 284.922 18.903 L 301.512 18.903 Q 304.067 18.903 304.994 17.328 Q 305.922 15.753 305.922 13.303 L 305.922 11.413 Q 305.922 8.368 304.662 7.16 Q 303.402 5.953 300.252 5.953 L 284.922 5.953 Z" id="6" vector-effect="non-scaling-stroke"/><path d="M 354.222 47.533 L 329.092 47.533 Q 326.152 47.533 326.152 44.593 L 326.152 3.013 Q 326.152 0.073 329.092 0.073 L 354.222 0.073 Q 357.162 0.073 357.162 3.013 Q 357.162 5.953 354.222 5.953 L 332.032 5.953 L 332.032 20.653 L 345.962 20.653 Q 348.902 20.653 348.902 23.593 Q 348.902 26.533 345.962 26.533 L 332.032 26.533 L 332.032 41.653 L 354.222 41.653 Q 357.162 41.653 357.162 44.593 Q 357.162 47.533 354.222 47.533 Z" id="7" vector-effect="non-scaling-stroke"/><path d="M 394.892 46.693 L 384.042 28.633 L 374.242 28.633 L 374.242 44.593 Q 374.242 47.533 371.302 47.533 Q 368.362 47.533 368.362 44.593 L 368.362 3.013 Q 368.362 0.073 371.302 0.073 L 387.682 0.073 Q 394.087 0.073 397.499 3.485 Q 400.912 6.898 400.912 13.303 L 400.912 15.403 Q 400.912 20.968 398.322 24.275 Q 395.732 27.583 390.832 28.388 L 400.002 43.683 Q 401.332 46.133 398.882 47.673 Q 397.727 48.408 396.677 48.128 Q 395.627 47.848 394.892 46.693 Z M 374.242 5.953 L 374.242 22.753 L 387.682 22.753 Q 391.672 22.753 393.352 21.073 Q 395.032 19.393 395.032 15.403 L 395.032 13.303 Q 395.032 9.348 393.352 7.65 Q 391.672 5.953 387.682 5.953 L 374.242 5.953 Z" id="8" vector-effect="non-scaling-stroke"/><path d="M 441.162 44.593 L 441.162 8.473 L 442.772 7.353 L 435.072 14.563 Q 434.197 15.403 433.217 15.56 Q 432.237 15.718 431.292 14.773 Q 429.402 12.883 431.502 10.783 L 440.882 1.543 Q 442.352 0.073 444.522 0.073 Q 447.042 0.073 447.042 3.013 L 447.042 44.593 Q 447.042 47.533 444.102 47.533 Q 441.162 47.533 441.162 44.593 Z" id="10" vector-effect="non-scaling-stroke"/><path d="M 487.012 47.533 L 460.832 47.533 Q 457.822 47.533 457.822 44.593 Q 457.822 39.903 459.309 36.595 Q 460.797 33.288 463.124 30.995 Q 465.452 28.703 468.077 27.11 Q 470.702 25.518 472.942 24.223 Q 476.827 22.018 479.434 20.408 Q 482.042 18.798 483.337 17.118 Q 484.632 15.438 484.632 13.023 Q 484.632 8.858 483.144 7.405 Q 481.657 5.953 477.562 5.953 L 470.072 5.953 Q 466.782 5.953 465.207 6.828 Q 463.632 7.703 463.212 10.083 Q 462.967 11.483 462.267 12.218 Q 461.567 12.953 460.132 12.953 Q 458.662 12.953 457.892 12.165 Q 457.122 11.378 457.262 9.873 Q 457.997 4.938 461.147 2.505 Q 464.297 0.073 470.072 0.073 L 477.562 0.073 Q 484.142 0.073 487.327 3.258 Q 490.512 6.443 490.512 13.023 Q 490.512 17.223 488.447 20.04 Q 486.382 22.858 483.022 25.01 Q 479.662 27.163 475.812 29.333 Q 473.012 30.943 470.509 32.553 Q 468.007 34.163 466.239 36.298 Q 464.472 38.433 463.912 41.653 L 487.012 41.653 Q 489.952 41.653 489.952 44.593 Q 489.952 47.533 487.012 47.533 Z" id="11" vector-effect="non-scaling-stroke"/><path d="M 519.842 31.083 L 500.522 31.083 Q 499.542 31.083 498.807 30.348 Q 498.072 29.613 498.072 28.633 Q 498.072 27.618 498.807 26.9 Q 499.542 26.183 500.522 26.183 L 519.842 26.183 Q 520.857 26.183 521.574 26.9 Q 522.292 27.618 522.292 28.633 Q 522.292 29.613 521.574 30.348 Q 520.857 31.083 519.842 31.083 Z" id="12" vector-effect="non-scaling-stroke"/><path d="M 542.522 44.593 L 542.522 8.473 L 544.132 7.353 L 536.432 14.563 Q 535.557 15.403 534.577 15.56 Q 533.597 15.718 532.652 14.773 Q 530.762 12.883 532.862 10.783 L 542.242 1.543 Q 543.712 0.073 545.882 0.073 Q 548.402 0.073 548.402 3.013 L 548.402 44.593 Q 548.402 47.533 545.462 47.533 Q 542.522 47.533 542.522 44.593 Z" id="13" vector-effect="non-scaling-stroke"/><path d="M 581.652 44.593 L 581.722 6.933 L 584.032 5.253 L 563.312 33.323 L 562.822 31.853 L 591.592 31.713 Q 593.027 31.713 593.779 32.553 Q 594.532 33.393 594.532 34.653 Q 594.532 37.593 591.592 37.593 L 560.022 37.593 Q 557.082 37.593 557.082 34.653 Q 557.082 33.253 558.272 31.573 L 580.252 1.893 Q 581.162 0.668 582.124 0.37 Q 583.087 0.073 584.382 0.073 Q 587.602 0.073 587.602 3.013 L 587.532 44.593 Q 587.532 47.533 584.592 47.533 Q 581.652 47.533 581.652 44.593 Z" id="14" vector-effect="non-scaling-stroke"/><path d="M 600.692 53.973 L 602.652 42.808 Q 602.757 40.253 605.452 40.253 L 607.132 40.253 Q 609.792 40.253 609.792 42.983 L 609.792 44.733 Q 609.792 45.328 609.599 45.905 Q 609.407 46.483 609.127 47.043 L 605.452 54.883 Q 604.612 56.423 603.142 56.423 Q 601.882 56.423 601.199 55.793 Q 600.517 55.163 600.692 53.973 Z" id="15" vector-effect="non-scaling-stroke"/><path d="M 670.622 47.533 L 644.442 47.533 Q 641.432 47.533 641.432 44.593 Q 641.432 39.903 642.919 36.595 Q 644.407 33.288 646.734 30.995 Q 649.062 28.703 651.687 27.11 Q 654.312 25.518 656.552 24.223 Q 660.437 22.018 663.044 20.408 Q 665.652 18.798 666.947 17.118 Q 668.242 15.438 668.242 13.023 Q 668.242 8.858 666.754 7.405 Q 665.267 5.953 661.172 5.953 L 653.682 5.953 Q 650.392 5.953 648.817 6.828 Q 647.242 7.703 646.822 10.083 Q 646.577 11.483 645.877 12.218 Q 645.177 12.953 643.742 12.953 Q 642.272 12.953 641.502 12.165 Q 640.732 11.378 640.872 9.873 Q 641.607 4.938 644.757 2.505 Q 647.907 0.073 653.682 0.073 L 661.172 0.073 Q 667.752 0.073 670.937 3.258 Q 674.122 6.443 674.122 13.023 Q 674.122 17.223 672.057 20.04 Q 669.992 22.858 666.632 25.01 Q 663.272 27.163 659.422 29.333 Q 656.622 30.943 654.119 32.553 Q 651.617 34.163 649.849 36.298 Q 648.082 38.433 647.522 41.653 L 670.622 41.653 Q 673.562 41.653 673.562 44.593 Q 673.562 47.533 670.622 47.533 Z" id="17" vector-effect="non-scaling-stroke"/><path d="M 703.942 47.463 L 699.742 47.463 Q 691.727 47.463 687.894 43.63 Q 684.062 39.798 684.062 31.783 L 684.062 15.613 Q 684.062 7.528 687.894 3.713 Q 691.727 -0.102 699.742 0.003 L 703.942 0.003 Q 711.992 0.003 715.807 3.8 Q 719.622 7.598 719.622 15.683 L 719.622 31.783 Q 719.622 39.798 715.807 43.63 Q 711.992 47.463 703.942 47.463 Z M 699.742 41.583 L 703.942 41.583 Q 707.687 41.583 709.822 40.673 Q 711.957 39.763 712.849 37.628 Q 713.742 35.493 713.742 31.783 L 713.742 15.683 Q 713.742 11.938 712.849 9.803 Q 711.957 7.668 709.822 6.775 Q 707.687 5.883 703.942 5.883 L 699.742 5.883 Q 696.032 5.813 693.897 6.67 Q 691.762 7.528 690.852 9.68 Q 689.942 11.833 689.942 15.613 L 689.942 31.783 Q 689.942 35.493 690.834 37.628 Q 691.727 39.763 693.862 40.673 Q 695.997 41.583 699.742 41.583 Z M 702.682 27.163 L 701.002 27.163 Q 698.202 27.163 698.202 24.363 L 698.202 22.613 Q 698.202 19.883 701.002 19.883 L 702.682 19.883 Q 705.342 19.883 705.342 22.613 L 705.342 24.363 Q 705.342 27.163 702.682 27.163 Z" id="18" vector-effect="non-scaling-stroke"/><path d="M 758.752 47.533 L 732.572 47.533 Q 729.562 47.533 729.562 44.593 Q 729.562 39.903 731.049 36.595 Q 732.537 33.288 734.864 30.995 Q 737.192 28.703 739.817 27.11 Q 742.442 25.518 744.682 24.223 Q 748.567 22.018 751.174 20.408 Q 753.782 18.798 755.077 17.118 Q 756.372 15.438 756.372 13.023 Q 756.372 8.858 754.884 7.405 Q 753.397 5.953 749.302 5.953 L 741.812 5.953 Q 738.522 5.953 736.947 6.828 Q 735.372 7.703 734.952 10.083 Q 734.707 11.483 734.007 12.218 Q 733.307 12.953 731.872 12.953 Q 730.402 12.953 729.632 12.165 Q 728.862 11.378 729.002 9.873 Q 729.737 4.938 732.887 2.505 Q 736.037 0.073 741.812 0.073 L 749.302 0.073 Q 755.882 0.073 759.067 3.258 Q 762.252 6.443 762.252 13.023 Q 762.252 17.223 760.187 20.04 Q 758.122 22.858 754.762 25.01 Q 751.402 27.163 747.552 29.333 Q 744.752 30.943 742.249 32.553 Q 739.747 34.163 737.979 36.298 Q 736.212 38.433 735.652 41.653 L 758.752 41.653 Q 761.692 41.653 761.692 44.593 Q 761.692 47.533 758.752 47.533 Z" id="19" vector-effect="non-scaling-stroke"/><path d="M 792.982 47.533 L 785.702 47.533 Q 779.577 47.533 776.234 44.96 Q 772.892 42.388 772.192 37.033 Q 772.052 35.563 772.822 34.758 Q 773.592 33.953 775.062 33.953 Q 777.757 33.953 778.072 36.823 Q 778.562 39.553 780.277 40.603 Q 781.992 41.653 785.702 41.653 L 792.982 41.653 Q 797.497 41.653 799.124 39.99 Q 800.752 38.328 800.752 33.883 L 800.752 29.053 Q 800.752 24.538 799.107 22.91 Q 797.462 21.283 792.982 21.283 L 787.802 21.283 Q 782.622 21.283 780.312 22.543 Q 779.262 23.173 778.404 23.488 Q 777.547 23.803 776.392 23.453 L 775.692 23.243 Q 773.242 22.543 773.242 19.953 L 773.242 3.013 Q 773.242 0.073 776.182 0.073 L 803.692 0.073 Q 806.632 0.073 806.632 3.013 Q 806.632 5.953 803.692 5.953 L 779.122 5.953 L 779.122 16.663 Q 782.692 15.403 787.802 15.403 L 792.982 15.403 Q 799.912 15.403 803.272 18.763 Q 806.632 22.123 806.632 29.053 L 806.632 33.883 Q 806.632 40.813 803.272 44.173 Q 799.912 47.533 792.982 47.533 Z" id="20" vector-effect="non-scaling-stroke"/></g></svg>