<?xml version="1.0" encoding="UTF-8" standalone="no"?>
<!-- Created with Inkscape (http://www.inkscape.org/) -->

<svg
   version="1.1"
   id="svg1"
   xmlns="http://www.w3.org/2000/svg"
   xmlns:svg="http://www.w3.org/2000/svg">
  <defs
     id="defs1" />
  <g
     id="layer1">
    <path
       style="fill:#000000"
       d="m 550.81359,537.45385 82.36465,1.96106 -0.24514,3.18673 36.76994,0.7354 0.98053,54.4195 23.77789,-0.7354 v 22.18452 h 6.61859 l -0.49027,12.37921 3.92213,-0.12256 v 6.12832 l 8.45708,-0.24513 0.7354,83.22261 14.58541,0.49027 c 0,0 0.24513,36.52479 -0.24514,36.64736 -0.49026,0.12257 -34.19603,0.49027 -34.19603,0.49027 l 0.73539,36.64736 -70.108,2.5739 -0.49027,-25.24869 -84.93854,-1.22566 v 7.47655 l -46.69781,3.06416 -46.82039,-3.92213 -7.10885,-2.69646 0.24513,-6.37345 -18.2624,-1.22567 c 0,0 -1.83849,-33.5832 -1.83849,-34.07347 0,-0.49026 5.14779,-38.24073 5.14779,-38.24073 l 0.49026,-31.13187 -5.02522,-38.3633 4.28983,-39.34383 25.86151,-0.24513 v -4.28983 l 8.08939,-0.49026 0.85796,-36.27967 45.22702,0.7354 c 0,0 6.49602,0.24513 6.98629,0.12257 0.49026,-0.12257 39.83409,4.53496 39.83409,3.30929 0,-1.22566 0.49027,-11.52124 0.49027,-11.52124 z"
       id="path1" />
  </g>
</svg>
